  <svg
    id="doc"
    viewBox="0 0 12 16"
    fill="none"
    xmlns="http://www.w3.org/2000/svg"
  >
    <path
      d="M0 13.1885C0 14.6182 0.704575 15.3297 2.12056 15.3297H9.38518C10.8012 15.3297 11.5058 14.6182 11.5058 13.1885V2.81146C11.5058 1.38863 10.8012 0.663532 9.38518 0.663532H2.12056C0.704575 0.663532 0 1.38863 0 2.81146V13.1885ZM1.10133 13.168V2.83198C1.10133 2.14793 1.46387 1.76486 2.17529 1.76486H9.33047C10.0419 1.76486 10.4044 2.14793 10.4044 2.83198V13.168C10.4044 13.8521 10.0419 14.2283 9.33047 14.2283H2.17529C1.46387 14.2283 1.10133 13.8521 1.10133 13.168ZM5.32877 14.8234H6.177V5.10987H5.32877V14.8234ZM5.75288 5.36982C6.79265 5.36982 7.40831 4.76785 7.40831 3.77597C7.40831 3.58444 7.38779 3.3929 7.34674 3.20137L6.70372 0.396751C6.64215 0.157332 6.43694 0 6.18383 0H5.32193C5.06883 0 4.86362 0.157332 4.80205 0.396751L4.15904 3.20137C4.118 3.3929 4.09748 3.58444 4.09748 3.77597C4.09748 4.76785 4.71313 5.36982 5.75288 5.36982ZM5.75288 4.46003C5.32877 4.46003 5.00727 4.13168 5.00727 3.70757C5.00727 3.2903 5.33561 2.96195 5.75288 2.96195C6.17015 2.96195 6.4985 3.2903 6.4985 3.70757C6.4985 4.13168 6.18383 4.46003 5.75288 4.46003ZM5.75288 6.95682H7.36726C7.60669 6.95682 7.79133 6.77212 7.79133 6.5327C7.79133 6.30013 7.60669 6.11543 7.36726 6.11543H5.75288V6.95682ZM4.13852 7.88715H5.75288V7.04575H4.13852C3.8991 7.04575 3.7144 7.2236 3.7144 7.45615C3.7144 7.69558 3.8991 7.88715 4.13852 7.88715ZM5.75288 8.81058H7.36726C7.60669 8.81058 7.79133 8.62594 7.79133 8.38652C7.79133 8.15389 7.60669 7.96925 7.36726 7.96925H5.75288V8.81058ZM4.13852 9.74088H5.75288V8.89954H4.13852C3.8991 8.89954 3.7144 9.07739 3.7144 9.30995C3.7144 9.54937 3.8991 9.74088 4.13852 9.74088ZM5.75288 10.6644H7.36726C7.60669 10.6644 7.79133 10.4797 7.79133 10.2402C7.79133 10.0077 7.60669 9.82297 7.36726 9.82297H5.75288V10.6644ZM4.13852 11.5947H5.75288V10.7533H4.13852C3.8991 10.7533 3.7144 10.9312 3.7144 11.1637C3.7144 11.4032 3.8991 11.5947 4.13852 11.5947ZM5.75288 12.5182H7.36726C7.60669 12.5182 7.79133 12.3335 7.79133 12.094C7.79133 11.8615 7.60669 11.6768 7.36726 11.6768H5.75288V12.5182ZM4.13852 13.4485H5.75288V12.6071H4.13852C3.8991 12.6071 3.7144 12.7918 3.7144 13.0244C3.7144 13.2638 3.8991 13.4485 4.13852 13.4485Z"
      fill="white"
      fill-opacity="0.64"
    />
  </svg>
