  <svg
    id="custom"
    viewBox="0 0 16 14"
    fill="none"
    xmlns="http://www.w3.org/2000/svg"
  >
    <path
      d="M15.7528 2.9215V11.0851C15.7528 12.4614 15.058 13.1495 13.6551 13.1495H2.0977C0.70146 13.1495 0 12.4614 0 11.0851V2.9215C0 1.5453 0.70146 0.850525 2.0977 0.850525H13.6551C15.058 0.850525 15.7528 1.5453 15.7528 2.9215ZM2.11106 1.9261C1.44301 1.9261 1.07558 2.28685 1.07558 2.98163V11.025C1.07558 11.7198 1.44301 12.0739 2.11106 12.0739H13.6417C14.3031 12.0739 14.6772 11.7198 14.6772 11.025V2.98163C14.6772 2.28685 14.3031 1.9261 13.6417 1.9261H2.11106ZM9.47309 10.1966C9.47309 10.4238 9.2994 10.5975 9.05887 10.5975H3.40709C3.1666 10.5975 2.9929 10.4238 2.9929 10.1966C2.9929 9.96282 3.1666 9.77579 3.40709 9.77579H9.05887C9.2994 9.77579 9.47309 9.96282 9.47309 10.1966ZM9.47309 3.80334C9.47309 4.03716 9.2994 4.21754 9.05887 4.21754H3.40709C3.1666 4.21754 2.9929 4.03716 2.9929 3.80334C2.9929 3.5762 3.1666 3.39582 3.40709 3.39582H9.05887C9.2994 3.39582 9.47309 3.5762 9.47309 3.80334Z"
      fill="white"
      fill-opacity="0.64"
    />
    <path
      d="M13.8278 6.31524V7.67808C13.8278 8.22585 13.5004 8.5733 12.946 8.5733H2.81152C2.25703 8.5733 1.92969 8.22585 1.92969 7.67808V6.31524C1.92969 5.76743 2.25703 5.42004 2.81152 5.42004H12.946C13.5004 5.42004 13.8278 5.76743 13.8278 6.31524ZM3.41277 6.58914C3.17227 6.58914 2.9919 6.76952 2.9919 6.99666C2.9919 7.23048 3.17227 7.41085 3.41277 7.41085H6.69962C6.94013 7.41085 7.11382 7.23048 7.11382 6.99666C7.11382 6.76952 6.94013 6.58914 6.69962 6.58914H3.41277Z"
      fill="white"
      fill-opacity="0.64"
    />
  </svg>
