  <svg
    id="uninstall"
    width="13"
    height="15"
    viewBox="0 0 13 15"
    fill="none"
    xmlns="http://www.w3.org/2000/svg"
  >
    <path
      d="M4.41082 12.7934C4.15136 12.7934 3.98504 12.6404 3.97173 12.3875L3.77215 5.06279C3.76549 4.81664 3.93181 4.65697 4.19793 4.65697C4.44408 4.65697 4.61705 4.80999 4.62371 5.05614L4.8366 12.3875C4.84325 12.6337 4.67028 12.7934 4.41082 12.7934ZM6.43992 12.7934C6.18047 12.7934 6.00084 12.6337 6.00084 12.3875V5.06279C6.00084 4.81664 6.18047 4.65697 6.43992 4.65697C6.69938 4.65697 6.88565 4.81664 6.88565 5.06279V12.3875C6.88565 12.6337 6.69938 12.7934 6.43992 12.7934ZM8.47568 12.7934C8.21619 12.7934 8.04322 12.6337 8.0499 12.3875L8.25611 5.06279C8.26279 4.80999 8.43576 4.65697 8.68189 4.65697C8.94806 4.65697 9.11435 4.81664 9.10767 5.06279L8.90814 12.3875C8.89478 12.6404 8.72849 12.7934 8.47568 12.7934ZM3.51934 3.04034H4.57714V1.61664C4.57714 1.23743 4.84325 0.991271 5.24242 0.991271H7.62412C8.02326 0.991271 8.28943 1.23743 8.28943 1.61664V3.04034H9.3472V1.55011C9.3472 0.585448 8.72182 0 7.69729 0H5.16924C4.1447 0 3.51934 0.585448 3.51934 1.55011V3.04034ZM0.498961 3.57256H12.3875C12.6603 3.57256 12.8798 3.33971 12.8798 3.06695C12.8798 2.79418 12.6603 2.56799 12.3875 2.56799H0.498961C0.232849 2.56799 0 2.79418 0 3.06695C0 3.34637 0.232849 3.57256 0.498961 3.57256ZM3.39294 14.8158H9.49353C10.4449 14.8158 11.0836 14.1971 11.1302 13.2458L11.5959 3.43285H1.284L1.75634 13.2524C1.80291 14.2038 2.42828 14.8158 3.39294 14.8158Z"
      fill="white"
      fill-opacity="0.64"
    />
  </svg>
