  <svg
    id="boot"
    viewBox="0 0 16 10"
    fill="none"
    xmlns="http://www.w3.org/2000/svg"
  >
    <g clip-path="url(#clip0_54_7970)">
      <path
        d="M3.33242 3.90265C3.33242 3.61811 3.50752 3.44301 3.80301 3.44301H4.81532V2.45806C4.81532 2.16804 4.97948 1.99294 5.26402 1.99294C5.54309 1.99294 5.71271 2.16804 5.71271 2.45806V3.44301H6.65939C6.97676 3.44301 7.16828 3.61811 7.16828 3.90265C7.16828 4.19814 6.97676 4.37871 6.65939 4.37871H5.71271V5.36366C5.71271 5.65366 5.54309 5.83425 5.26402 5.83425C4.97948 5.83425 4.81532 5.65366 4.81532 5.36366V4.37871H3.80301C3.50752 4.37871 3.33242 4.19814 3.33242 3.90265ZM11.409 3.84793C10.9603 3.84793 10.5827 3.48131 10.5827 3.02714C10.5827 2.56749 10.9603 2.20087 11.409 2.20087C11.8686 2.20087 12.2353 2.56749 12.2353 3.02714C12.2353 3.48131 11.8686 3.84793 11.409 3.84793ZM9.751 5.51688C9.30234 5.51688 8.92474 5.15025 8.92474 4.69608C8.92474 4.24191 9.30234 3.86982 9.751 3.86982C10.2052 3.86982 10.5773 4.24191 10.5773 4.69608C10.5773 5.15025 10.2052 5.51688 9.751 5.51688ZM2.08481 9.96011C2.83447 9.96011 3.34883 9.68651 3.80848 9.11744L4.7989 7.91906C4.94117 7.74945 5.10533 7.66736 5.26949 7.66736H10.5281C10.6922 7.66736 10.8564 7.74945 10.9986 7.91906L11.9891 9.11744C12.4487 9.68651 12.9631 9.96011 13.7127 9.96011C14.9658 9.96011 15.7976 9.12836 15.7976 7.8479C15.7976 7.30074 15.6717 6.67144 15.4583 5.96559C15.1245 4.84383 14.539 3.31715 13.9809 2.13521C13.5102 1.15026 13.2695 0.701556 12.1094 0.438903C11.0807 0.203609 9.65255 0.0449219 7.90152 0.0449219C6.1505 0.0449219 4.71682 0.203609 3.6881 0.438903C2.52804 0.701556 2.28728 1.15026 1.81669 2.13521C1.25855 3.31715 0.673049 4.84383 0.339261 5.96559C0.125855 6.67144 0 7.30074 0 7.8479C0 9.12836 0.83174 9.96011 2.08481 9.96011Z"
        fill="white"
        fill-opacity="0.64"
      />
    </g>
    <defs>
      <clipPath id="clip0_54_7970">
        <rect
          width="16"
          height="9.92066"
          fill="white"
          transform="translate(0 0.0390625)"
        />
      </clipPath>
    </defs>
  </svg>