<?xml version="1.0" encoding="utf-8"?>
<!-- Generator: Adobe Illustrator 27.0.0, SVG Export Plug-In . SVG Version: 6.00 Build 0)  -->
<svg version="1.1" id="screen" xmlns="http://www.w3.org/2000/svg" xmlns:xlink="http://www.w3.org/1999/xlink" x="0px" y="0px"
	 viewBox="0 0 16 16" style="enable-background:new 0 0 16 16;" xml:space="preserve">
<style type="text/css">
	.st0{fill:#020000;fill-opacity:0.64;}
</style>
<g>
	<path class="st0" d="M1,6.4c0.4,0,0.7-0.3,0.7-0.7S1.4,4.9,1,4.9c-0.4,0-0.7,0.3-0.7,0.7S0.6,6.4,1,6.4z M1,4
		c0.4,0,0.7-0.3,0.7-0.7S1.4,2.5,1,2.5c-0.4,0-0.7,0.3-0.7,0.7S0.6,4,1,4z M1,1.6c0.4,0,0.7-0.3,0.7-0.7c0-0.4-0.3-0.7-0.7-0.7
		c-0.4,0-0.7,0.3-0.7,0.7C0.2,1.3,0.6,1.6,1,1.6z M3.3,1.6c0.4,0,0.7-0.3,0.7-0.7c0-0.4-0.3-0.7-0.7-0.7c-0.4,0-0.7,0.3-0.7,0.7
		C2.6,1.3,2.9,1.6,3.3,1.6z M5.7,1.6c0.4,0,0.7-0.3,0.7-0.7c0-0.4-0.3-0.7-0.7-0.7C5.3,0.2,5,0.5,5,0.9C5,1.3,5.3,1.6,5.7,1.6z
		 M8.1,1.6c0.4,0,0.7-0.3,0.7-0.7c0-0.4-0.3-0.7-0.7-0.7c-0.4,0-0.7,0.3-0.7,0.7C7.3,1.3,7.7,1.6,8.1,1.6z M10.4,1.6
		c0.4,0,0.7-0.3,0.7-0.7c0-0.4-0.3-0.7-0.7-0.7c-0.4,0-0.7,0.3-0.7,0.7C9.7,1.3,10,1.6,10.4,1.6z M12.8,1.6c0.4,0,0.7-0.3,0.7-0.7
		c0-0.4-0.3-0.7-0.7-0.7c-0.4,0-0.7,0.3-0.7,0.7C12.1,1.3,12.4,1.6,12.8,1.6z M15.2,1.6c0.4,0,0.7-0.3,0.7-0.7
		c0-0.4-0.3-0.7-0.7-0.7s-0.7,0.3-0.7,0.7C14.5,1.3,14.8,1.6,15.2,1.6z M15.2,4c0.4,0,0.7-0.3,0.7-0.7s-0.3-0.7-0.7-0.7
		s-0.7,0.3-0.7,0.7S14.8,4,15.2,4z M15.2,6.4c0.4,0,0.7-0.3,0.7-0.7s-0.3-0.7-0.7-0.7s-0.7,0.3-0.7,0.7S14.8,6.4,15.2,6.4z
		 M15.2,8.7c0.4,0,0.7-0.3,0.7-0.7s-0.3-0.7-0.7-0.7S14.5,7.6,14.5,8S14.8,8.7,15.2,8.7z M15.2,11.1c0.4,0,0.7-0.3,0.7-0.7
		c0-0.4-0.3-0.7-0.7-0.7s-0.7,0.3-0.7,0.7C14.5,10.8,14.8,11.1,15.2,11.1z M15.2,13.5c0.4,0,0.7-0.3,0.7-0.7c0-0.4-0.3-0.7-0.7-0.7
		s-0.7,0.3-0.7,0.7C14.5,13.1,14.8,13.5,15.2,13.5z M15.2,15.8c0.4,0,0.7-0.3,0.7-0.7c0-0.4-0.3-0.7-0.7-0.7s-0.7,0.3-0.7,0.7
		C14.5,15.5,14.8,15.8,15.2,15.8z M12.8,15.8c0.4,0,0.7-0.3,0.7-0.7c0-0.4-0.3-0.7-0.7-0.7c-0.4,0-0.7,0.3-0.7,0.7
		C12.1,15.5,12.4,15.8,12.8,15.8z M10.4,15.8c0.4,0,0.7-0.3,0.7-0.7c0-0.4-0.3-0.7-0.7-0.7c-0.4,0-0.7,0.3-0.7,0.7
		C9.7,15.5,10,15.8,10.4,15.8z"/>
	<path class="st0" d="M0.9,15.8h7.2c0.4,0,0.7-0.3,0.7-0.7V9.3L8.3,9.8c-0.2,0.2-0.4,0.3-0.7,0.4v4.1c0,0.2-0.1,0.2-0.2,0.2H1.7
		c-0.2,0-0.2-0.1-0.2-0.2V8.7c0-0.2,0.1-0.2,0.2-0.2h4.1c0.1-0.3,0.2-0.5,0.4-0.7l0.5-0.5H0.9c-0.4,0-0.7,0.3-0.7,0.7v7.2
		C0.2,15.6,0.5,15.8,0.9,15.8z"/>
	<path class="st0" d="M6.8,9.1c0.2,0.2,0.5,0.2,0.7,0l3.1-3l0.8,0.8c0.3,0.3,0.7,0.1,0.8-0.3l0.6-2.7c0.1-0.4-0.2-0.6-0.6-0.6
		L9.4,3.9C9,4,8.9,4.4,9.1,4.6l0.8,0.8l-3.1,3C6.6,8.6,6.6,8.9,6.8,9.1z"/>
</g>
</svg>
