  <svg
    id="joystick"
    viewBox="0 0 16 16"
    fill="none"
    xmlns="http://www.w3.org/2000/svg"
  >
    <path
      fill-rule="evenodd"
      clip-rule="evenodd"
      d="M0.329567 10.336C1.32959 13.6186 4.38179 16.0086 7.99137 16.0086C12.4144 16.0086 16 12.423 16 8C16 3.57698 12.4144 -0.00863647 7.99137 -0.00863647C3.74729 -0.00863647 0.274296 3.29317 0 7.46792C0.00136998 7.47022 0.00273775 7.47252 0.0041033 7.47481C0.00418168 7.47345 0.00422343 7.47276 0.00422343 7.47276L4.30761 9.24642C4.42526 9.1668 4.55091 9.09969 4.68252 9.04621C4.98484 8.92182 5.30319 8.86601 5.62053 8.88053L7.58014 6.03371L7.57939 5.99417H7.57689C7.57689 4.31386 8.94161 2.94738 10.6189 2.94738C12.2995 2.95089 13.6609 4.31386 13.6609 5.99417C13.6609 7.67448 12.297 9.04245 10.6189 9.04245L10.5501 9.0412L7.74882 11.0446C7.75692 11.3583 7.69858 11.6701 7.57764 11.9596C7.35095 12.5031 6.9178 12.9344 6.37333 13.1588C5.82885 13.3832 5.21758 13.3824 4.67376 13.1564C3.98251 12.8686 3.512 12.2699 3.36184 11.5872L0.329567 10.336ZM4.86822 12.6874C5.74091 13.051 6.74499 12.6388 7.10888 11.7629H7.10688C7.28257 11.3409 7.28357 10.8737 7.10938 10.45C6.9352 10.0263 6.60984 9.69491 6.18439 9.51897C5.76443 9.34453 5.31545 9.34953 4.92052 9.4997L5.94663 9.9239C6.25567 10.053 6.50083 10.2996 6.62823 10.6093C6.75564 10.9191 6.75487 11.2667 6.62611 11.5759C6.56252 11.729 6.46941 11.868 6.35209 11.985C6.23476 12.102 6.09553 12.1948 5.94234 12.258C5.78916 12.3211 5.62502 12.3535 5.45931 12.3533C5.2936 12.353 5.12957 12.3201 4.97658 12.2564L3.98627 11.846C4.16705 12.2252 4.48095 12.5246 4.86822 12.6874ZM9.18887 7.42857C9.56874 7.80914 10.084 8.02365 10.6217 8.02511C11.1595 8.02378 11.6748 7.80933 12.0548 7.42875C12.4348 7.04816 12.6484 6.53247 12.6489 5.99467C12.6483 5.45695 12.4346 4.94139 12.0546 4.56091C11.6747 4.18043 11.1594 3.96605 10.6217 3.96473C10.084 3.96619 9.5689 4.18062 9.18905 4.56109C8.80919 4.94156 8.59558 5.45704 8.59498 5.99467C8.59545 6.53238 8.809 7.048 9.18887 7.42857ZM9.54812 4.91376C9.26279 5.19979 9.1027 5.5874 9.10303 5.99142C9.10283 6.39538 9.26276 6.78291 9.54813 7.06884C9.8335 7.35477 10.2207 7.51571 10.6247 7.51631C11.0288 7.51591 11.4162 7.35505 11.7017 7.0691C11.9872 6.78315 12.1475 6.39551 12.1473 5.99142C12.1473 5.14926 11.4643 4.46602 10.6247 4.46602C10.2207 4.46668 9.83344 4.62773 9.54812 4.91376Z"
      fill="white"
      fill-opacity="0.64"
    />
  </svg>