  <svg
    id="books"
    viewBox="0 0 16 16"
    fill="none"
    xmlns="http://www.w3.org/2000/svg"
  >
    <path
      d="M13.625 15.5077C14.6572 15.5077 15.5 14.6534 15.5 13.6295C15.5 12.599 14.6572 11.7577 13.625 11.7577C12.5928 11.7577 11.75 12.599 11.75 13.6295C11.75 14.6534 12.5928 15.5077 13.625 15.5077Z"
      fill="white"
      fill-opacity="0.64"
    />
    <path
      d="M8.00324 15.5077C9.02362 15.5077 9.875 14.6534 9.875 13.6295C9.875 12.599 9.02362 11.7577 8.00324 11.7577C6.97638 11.7577 6.125 12.599 6.125 13.6295C6.125 14.6534 6.97638 15.5077 8.00324 15.5077Z"
      fill="white"
      fill-opacity="0.64"
    />
    <path
      d="M2.375 15.5077C3.40723 15.5077 4.25 14.6664 4.25 13.6295C4.25 12.6055 3.4007 11.7577 2.375 11.7577C1.34277 11.7577 0.5 12.599 0.5 13.6295C0.5 14.6534 1.34277 15.5077 2.375 15.5077Z"
      fill="white"
      fill-opacity="0.64"
    />
    <path
      d="M13.625 9.88272C14.6572 9.88272 15.5 9.02839 15.5 8.00447C15.5 6.97405 14.6572 6.12624 13.625 6.13276C12.5928 6.13928 11.75 6.97405 11.75 8.00447C11.75 9.02839 12.5928 9.88272 13.625 9.88272Z"
      fill="white"
      fill-opacity="0.64"
    />
    <path
      d="M8.00324 9.88272C9.02362 9.88272 9.875 9.02839 9.875 8.00447C9.875 6.97405 9.02362 6.12624 8.00324 6.13276C6.97638 6.13928 6.125 6.97405 6.125 8.00447C6.125 9.02839 6.97638 9.88272 8.00324 9.88272Z"
      fill="white"
      fill-opacity="0.64"
    />
    <path
      d="M2.375 9.88272C3.40723 9.88272 4.25 9.02839 4.25 8.00447C4.25 6.97405 3.4007 6.12624 2.375 6.13276C1.34277 6.13928 0.5 6.97405 0.5 8.00447C0.5 9.02839 1.34277 9.88272 2.375 9.88272Z"
      fill="white"
      fill-opacity="0.64"
    />
    <path
      d="M13.625 4.2577C14.6572 4.2577 15.5 3.40484 15.5 2.38272C15.5 1.34757 14.6572 0.501225 13.625 0.507735C12.5862 0.514246 11.75 1.34106 11.75 2.38272C11.75 3.40484 12.5928 4.2577 13.625 4.2577Z"
      fill="white"
      fill-opacity="0.64"
    />
    <path
      d="M8.00324 4.2577C9.02362 4.2577 9.875 3.40484 9.875 2.38272C9.875 1.34757 9.02362 0.501225 8.00324 0.507735C6.97638 0.514246 6.125 1.34757 6.125 2.38272C6.125 3.40484 6.97638 4.2577 8.00324 4.2577Z"
      fill="white"
      fill-opacity="0.64"
    />
    <path
      d="M2.375 4.25772C3.40723 4.25772 4.25 3.4099 4.25 2.3925C4.25 1.36207 3.40723 0.507721 2.375 0.507721C1.34277 0.507721 0.5 1.36207 0.5 2.3925C0.5 3.4099 1.34277 4.25772 2.375 4.25772Z"
      fill="white"
      fill-opacity="0.64"
    />
  </svg>