  <svg
    id="compress"
    viewBox="0 0 15 16"
    fill="none"
    xmlns="http://www.w3.org/2000/svg"
  >
    <path
      d="M1.81337 9.97035H12.0336C13.1037 9.97035 13.847 9.2463 13.847 8.25952V7.60593C13.847 6.61915 13.1037 5.89508 12.0336 5.89508H1.81337C0.743289 5.89508 0 6.61915 0 7.60593V8.25952C0 9.2463 0.743289 9.97035 1.81337 9.97035ZM1.94793 9.0028C1.37124 9.0028 1.01882 8.61836 1.01882 8.09935V7.7661C1.01882 7.24708 1.37124 6.86265 1.94793 6.86265H11.8991C12.4758 6.86265 12.8282 7.24708 12.8282 7.7661V8.09935C12.8282 8.61836 12.4758 9.0028 11.8991 9.0028H1.94793Z"
      fill="white"
      fill-opacity="0.64"
    />
    <path
      d="M1.94793 9.0028C1.37124 9.0028 1.01882 8.61836 1.01882 8.09935V7.7661C1.01882 7.24708 1.37124 6.86265 1.94793 6.86265H11.8991C12.4758 6.86265 12.8282 7.24708 12.8282 7.7661V8.09935C12.8282 8.61836 12.4758 9.0028 11.8991 9.0028H1.94793Z"
      fill="white"
      fill-opacity="0.64"
    />
    <path
      d="M6.92838 15.8654C7.20396 15.8654 7.4346 15.6412 7.4346 15.372V13.2575L7.39615 12.181L7.94725 12.7577L8.78023 13.5907C8.87635 13.6868 8.99807 13.7445 9.12621 13.7445C9.39536 13.7445 9.60041 13.5587 9.60041 13.2895C9.60041 13.1422 9.5363 13.0332 9.42738 12.9307L7.30002 10.9443C7.16551 10.8225 7.05659 10.7777 6.92838 10.7777C6.79387 10.7777 6.69132 10.8225 6.55036 10.9443L4.42301 12.9307C4.31408 13.0332 4.25 13.1422 4.25 13.2895C4.25 13.5587 4.44864 13.7445 4.71776 13.7445C4.84591 13.7445 4.97406 13.6868 5.07018 13.5907L5.90959 12.7577L6.46065 12.181L6.4158 13.2575V15.372C6.4158 15.6412 6.65287 15.8654 6.92838 15.8654ZM6.92838 5.0941C7.05659 5.0941 7.16551 5.04285 7.30002 4.9211L9.42738 2.93472C9.5363 2.8386 9.60041 2.72326 9.60041 2.57589C9.60041 2.31317 9.39536 2.12094 9.12621 2.12094C8.99807 2.12094 8.87635 2.17861 8.78023 2.27473L7.94725 3.10773L7.39615 3.68441L7.4346 2.60793V0.493391C7.4346 0.224269 7.20396 0 6.92838 0C6.65287 0 6.4158 0.224269 6.4158 0.493391V2.60793L6.46065 3.68441L5.90959 3.10773L5.07018 2.27473C4.97406 2.17861 4.84591 2.12094 4.71776 2.12094C4.44864 2.12094 4.25 2.31317 4.25 2.57589C4.25 2.72326 4.31408 2.8386 4.42301 2.93472L6.55036 4.9211C6.69132 5.04285 6.79387 5.0941 6.92838 5.0941Z"
      fill="white"
      fill-opacity="0.64"
    />
  </svg>
