  <svg
    id="list"
    viewBox="0 0 16 16"
    fill="none"
    xmlns="http://www.w3.org/2000/svg"
  >
    <path
      d="M0 7.31259V13.6041C0 14.1184 0.373404 14.4496 0.866579 14.4496C1.35976 14.4425 1.73316 14.1184 1.73316 13.6041V5.98806H1.38794C0.528402 5.98806 0 6.4742 0 7.31259ZM2.38133 15.5486H13.5271C15.0066 15.5486 15.7393 14.8229 15.7393 13.3716V2.62742C15.7393 1.17607 15.0066 0.443359 13.5271 0.443359H5.31925C3.84677 0.443359 3.10701 1.17607 3.10701 2.62742V14.0691C3.10701 14.8229 2.93087 15.2457 2.38133 15.5486ZM5.9322 4.6424C5.67856 4.6424 5.48834 4.44513 5.48834 4.19854C5.48834 3.959 5.67856 3.77582 5.9322 3.77582H12.9282C13.1748 3.77582 13.3651 3.959 13.3651 4.19854C13.3651 4.44513 13.1748 4.6424 12.9282 4.6424H5.9322ZM5.9322 7.12236C5.67856 7.12236 5.48834 6.93214 5.48834 6.6926C5.48834 6.44601 5.67856 6.25578 5.9322 6.25578H12.9282C13.1748 6.25578 13.3651 6.44601 13.3651 6.6926C13.3651 6.93214 13.1748 7.12236 12.9282 7.12236H5.9322ZM10.3003 9.6094C10.0467 9.6094 9.86353 9.42622 9.86353 9.18663C9.86353 8.93304 10.0467 8.74279 10.3003 8.74279H12.9282C13.1748 8.74279 13.358 8.93304 13.358 9.18663C13.358 9.42622 13.1748 9.6094 12.9282 9.6094H10.3003ZM10.3003 12.1457C10.0467 12.1457 9.86353 11.9625 9.86353 11.723C9.86353 11.4764 10.0467 11.2791 10.3003 11.2791H12.9282C13.1748 11.2791 13.358 11.4764 13.358 11.723C13.358 11.9625 13.1748 12.1457 12.9282 12.1457H10.3003ZM6.31265 12.1809C5.79129 12.1809 5.4813 11.8709 5.4813 11.3567V9.57412C5.4813 9.0528 5.79129 8.74279 6.31265 8.74279H8.07398C8.5883 8.74279 8.89831 9.0528 8.89831 9.57412V11.3567C8.89831 11.8709 8.5883 12.1809 8.07398 12.1809H6.31265Z"
      fill="white"
      fill-opacity="0.64"
    />
  </svg>