  <svg
    id="prize"
    viewBox="0 0 14 16"
    fill="none"
    xmlns="http://www.w3.org/2000/svg"
  >
    <path
      d="M6.74378 15.9929C9.23915 15.9929 11.2524 13.9796 11.2524 11.4914C11.2524 8.99603 9.23915 6.98272 6.74378 6.98272C4.25552 6.98272 2.24223 8.99603 2.24223 11.4914C2.24223 13.9796 4.25552 15.9929 6.74378 15.9929ZM5.46066 13.8095C5.19128 14.008 4.90771 13.8024 5.01405 13.4905L5.52446 11.9664L4.22008 11.0377C3.97196 10.8534 4.04994 10.506 4.39021 10.506L5.99235 10.5202L6.48148 8.98892C6.58073 8.67699 6.92101 8.67699 7.02026 8.98892L7.50942 10.5202L9.11153 10.506C9.45184 10.506 9.52269 10.8604 9.28168 11.0306L7.97728 11.9664L8.48767 13.4905C8.59402 13.8024 8.31048 14.008 8.04109 13.8095L6.75087 12.8666L5.46066 13.8095ZM2.42655 8.11695C3.12127 7.23793 4.0783 6.57156 5.1771 6.24547L1.96575 0.474967L0.101332 3.31768C-0.0262712 3.502 -0.0333603 3.70758 0.0800646 3.8919L2.42655 8.11695ZM5.15583 3.82809H8.33879L10.501 0H2.99367L5.15583 3.82809ZM8.31759 6.24547C9.42346 6.57156 10.3734 7.23793 11.0681 8.11695L13.4217 3.8919C13.528 3.70758 13.5209 3.502 13.3933 3.31768L11.5289 0.474967L8.31759 6.24547Z"
      fill="white"
      fill-opacity="0.64"
    />
  </svg>