  <svg
    id="plugin"
    viewBox="0 0 26 26"
    xmlns="http://www.w3.org/2000/svg"
  >
    <path
      d="M24 18C22.29 18 20.91 16.57 21 14.84C21.08 13.22 22.54 12 24.16 12H26V8C26 5.79 24.21 4 22 4H19C19 1.79 17.21 0 15 0C12.79 0 11 1.79 11 4H8C5.79 4 4 5.79 4 8V11C1.79 11 0 12.79 0 15C0 17.21 1.79 19 4 19V22C4 24.21 5.79 26 8 26H12V24.17C12 22.55 13.22 21.09 14.84 21.01C16.57 20.92 18 22.3 18 24.01V26.01H22C24.21 26.01 26 24.22 26 22.01V18.01L24 18Z"
      fill="white"
      fill-opacity="0.64"
    />
  </svg>