  <svg
    id="migrate"
    viewBox="0 0 16 16"
    fill="none"
    xmlns="http://www.w3.org/2000/svg"
  >
    <g clip-path="url(#clip0_54_7976)">
      <path
        d="M8.53774 5.37042C8.53774 6.20376 8.93488 6.60089 9.76821 6.60089H14.4817V12.5124C14.4817 13.8666 13.8112 14.5502 12.4635 14.5502H7.16361C7.52454 13.9371 7.73048 13.2263 7.73048 12.4733C7.73048 10.1686 5.83594 8.27409 3.53125 8.27409V2.63607C3.53125 1.2819 4.20834 0.591797 5.54948 0.591797H8.53774V5.37042ZM10.276 1.21029L13.8633 4.86263C14.1758 5.18162 14.3646 5.44209 14.4037 5.70896H9.78774C9.54688 5.70896 9.42968 5.59182 9.42968 5.35742V0.66341C9.70314 0.708984 9.97008 0.89779 10.276 1.21029Z"
        fill="white"
        fill-opacity="0.64"
      />
      <path
        d="M6.83334 12.4733C6.83334 14.2767 5.32292 15.7806 3.52604 15.7806C1.71615 15.7806 0.21875 14.2897 0.21875 12.4733C0.21875 10.6569 1.71615 9.16602 3.52604 9.16602C5.34245 9.16602 6.83334 10.6569 6.83334 12.4733ZM3.22006 10.5201L1.54037 12.0892C1.44271 12.1738 1.40365 12.2715 1.39714 12.3951C1.38412 12.6165 1.56641 12.7793 1.79428 12.7793C1.90495 12.7858 2.01563 12.7272 2.09375 12.6491L2.71224 12.0241L3.14193 11.5813L3.10287 12.4147V14.1399C3.10287 14.3678 3.30469 14.5566 3.53906 14.5566C3.77344 14.5566 3.96875 14.3678 3.96875 14.1399V12.4147L3.9362 11.5813L4.35938 12.0241L4.97787 12.6491C5.0625 12.7272 5.16667 12.7727 5.27735 12.7793C5.4987 12.7923 5.66797 12.6165 5.66797 12.3951C5.66797 12.2715 5.62891 12.1738 5.53126 12.0892L3.84506 10.5201C3.73438 10.4225 3.64974 10.3704 3.53906 10.3704C3.42839 10.3704 3.33724 10.416 3.22006 10.5201Z"
        fill="white"
        fill-opacity="0.64"
      />
    </g>
    <defs>
      <clipPath id="clip0_54_7976">
        <rect width="16" height="16" fill="white" />
      </clipPath>
    </defs>
  </svg>