<svg id="quick" fill="none" xmlns="http://www.w3.org/2000/svg">
    <path
      d="M0 7.99669C0 11.6726 3.05006 14.7161 6.71936 14.7161C10.3953 14.7161 13.4387 11.6726 13.4387 7.99669C13.4387 4.75561 11.0737 2.00857 7.99076 1.40251V0.467076C7.99076 -0.000643723 7.66798 -0.125808 7.31221 0.131108L5.21079 1.60014C4.90776 1.81094 4.90117 2.12715 5.21079 2.34454L7.30566 3.82017C7.66798 4.08367 7.99076 3.95851 7.99076 3.4842V2.54876C10.4809 3.11529 12.3123 5.32873 12.3123 7.99669C12.3123 11.1061 9.82869 13.5962 6.71936 13.5962C3.61 13.5962 1.1133 11.1061 1.11989 7.99669C1.12648 6.12583 2.03557 4.47234 3.43873 3.47102C3.70882 3.26681 3.79446 2.95719 3.62977 2.68051C3.46508 2.41042 3.10276 2.33795 2.8129 2.56193C1.11989 3.79382 0 5.78327 0 7.99669Z"
      fill="white"
      fill-opacity="0.64"
    />
  </svg>