  <svg
    id="disk"
    viewBox="0 0 16 16"
    fill="none"
    xmlns="http://www.w3.org/2000/svg"
  >
    <path
      d="M1.44141 13.3924C1.44141 14.8846 2.20193 15.6378 3.71574 15.6378H12.0236C13.5374 15.6378 14.2979 14.8846 14.2979 13.3924V6.30873C14.2979 4.81665 13.5374 4.06337 12.0236 4.06337H8.44547V0.564961C8.44547 0.260751 8.18472 0 7.87327 0C7.56181 0 7.29381 0.260751 7.29381 0.564961V4.06337H3.71574C2.20193 4.06337 1.44141 4.81665 1.44141 6.30873V13.3924ZM7.86602 10.9661C7.72116 10.9661 7.59803 10.9226 7.44592 10.7777L4.99776 8.40923C4.88912 8.30057 4.83117 8.18472 4.83117 8.0326C4.83117 7.73562 5.04846 7.52558 5.35267 7.52558C5.49029 7.52558 5.64964 7.5835 5.75104 7.69943L6.98236 9.00317L7.33728 9.37981L7.29381 8.2933V4.57039C7.29381 4.24445 7.52559 4.01991 7.86602 4.01991C8.20644 4.01991 8.44547 4.24445 8.44547 4.57039V8.2933L8.40201 9.37981L8.74968 9.00317L9.98822 7.69943C10.0897 7.5835 10.2345 7.52558 10.3794 7.52558C10.6764 7.52558 10.9081 7.73562 10.9081 8.0326C10.9081 8.18472 10.8429 8.30057 10.7343 8.40923L8.28612 10.7777C8.14126 10.9226 8.01813 10.9661 7.86602 10.9661Z"
      fill="white"
      fill-opacity="0.64"
    />
  </svg>
