  <svg
    id="theme"
    viewBox="0 0 15 16"
    fill="none"
    xmlns="http://www.w3.org/2000/svg"
  >
    <path
      d="M0.795016 15.0993C1.83933 16.1503 3.19158 16.1637 4.22249 15.1328C5.04589 14.3094 5.84251 12.4483 6.45169 11.5178L8.0717 13.1446C8.56711 13.6466 9.16959 13.6466 9.6382 13.1647L10.2139 12.5889C10.7026 12.0936 10.6958 11.5313 10.1938 11.0291L4.87184 5.7005C4.36307 5.19843 3.79406 5.19174 3.30537 5.68042L2.72967 6.25613C2.24768 6.73812 2.24768 7.32054 2.74975 7.82259L4.36977 9.44263C3.44596 10.0518 1.59164 10.8484 0.76155 11.6718C-0.262678 12.7027 -0.255984 14.0617 0.795016 15.0993ZM2.5824 14.229C2.12049 14.229 1.7523 13.8541 1.7523 13.399C1.7523 12.9437 2.12049 12.5755 2.5824 12.5755C3.03761 12.5755 3.40579 12.9437 3.40579 13.399C3.40579 13.8541 3.03761 14.229 2.5824 14.229ZM10.9904 10.7212L13.5878 8.12387C14.3309 7.38079 14.3108 6.49712 13.5544 5.72728L13.2129 5.37917C12.5167 6.2829 10.5285 7.34062 10.147 6.95901C10.0867 6.89875 10.08 6.77828 10.167 6.68456C10.977 5.87455 11.5059 5.08463 11.6264 3.79933L8.18549 0.351769C7.54956 -0.284189 6.445 -0.0766658 6.14375 1.1283C5.72201 2.84204 5.34044 3.83949 4.92539 4.66289L10.9904 10.7212Z"
      fill="white"
      fill-opacity="0.64"
    />
  </svg>