  <svg
    id="package"
    viewBox="0 0 16 16"
    fill="none"
    xmlns="http://www.w3.org/2000/svg"
  >
    <g clip-path="url(#clip0_62_10167)">
      <path
        d="M2.50741 15.8707H13.3058C14.3332 15.8707 14.9223 15.2888 14.9223 14.2829V8.37724C14.4913 8.61428 13.974 8.76517 13.428 8.76517C12.7239 8.76517 12.0916 8.52806 11.5887 8.14012C11.0786 8.52806 10.4463 8.76517 9.74228 8.76517C9.04536 8.76517 8.40596 8.52806 7.90303 8.14733C7.40732 8.52806 6.76786 8.76517 6.07096 8.76517C5.36687 8.76517 4.73463 8.52806 4.22453 8.14012C3.7216 8.52806 3.08937 8.76517 2.38528 8.76517C1.83925 8.76517 1.32914 8.63584 0.883701 8.42035V14.2829C0.883701 15.2888 1.48002 15.8707 2.50741 15.8707ZM3.29772 14.714V10.7984C3.29772 10.4679 3.52044 10.2524 3.85093 10.2524H6.67447C7.00495 10.2524 7.22049 10.4679 7.22049 10.7984V14.714H3.29772ZM9.37583 12.9754C9.04536 12.9754 8.82266 12.7598 8.82266 12.4293V10.4679C8.82266 10.1374 9.04536 9.92191 9.37583 9.92191H12.2928C12.6233 9.92191 12.8388 10.1374 12.8388 10.4679V12.4293C12.8388 12.7598 12.6233 12.9754 12.2928 12.9754H9.37583ZM1.74585 1.74586H13.9812V1.58061C13.9812 0.668171 13.4208 0.11496 12.4939 0.11496H3.24024C2.31343 0.11496 1.74585 0.668171 1.74585 1.58061V1.74586ZM0.114953 5.28785H15.6121C15.5833 5.24474 15.5617 5.18726 15.5331 5.13697L14.1321 2.44276H1.59498L0.193983 5.13697C0.165245 5.18726 0.143691 5.24474 0.114953 5.28785ZM2.34935 8.06824C3.11092 8.06824 3.7719 7.71621 4.1886 7.15584C4.59812 7.71621 5.26629 8.06824 6.02785 8.06824C6.7966 8.06824 7.45757 7.70907 7.86713 7.15584C8.27662 7.70907 8.93758 8.06824 9.70638 8.06824C10.4751 8.06824 11.1361 7.71621 11.5528 7.15584C11.9623 7.71621 12.6233 8.06824 13.3849 8.06824C14.6924 8.06824 15.7342 7.04088 15.7342 6.11408V5.98476H0V6.25777C0 7.18458 1.04895 8.06824 2.34935 8.06824Z"
        fill="white"
        fill-opacity="0.64"
      />
    </g>
    <defs>
      <clipPath id="clip0_62_10167">
        <rect fill="white" transform="translate(0 0.11496)" />
      </clipPath>
    </defs>
  </svg>
