  <svg
    id="android"
    width="16"
    height="20"
    viewBox="0 0 34 50"
    fill="white"
    xmlns="http://www.w3.org/2000/svg"
  >
    <path
      d="M1 26C1.26522 26 1.51957 25.8946 1.70711 25.7071C1.89464 25.5196 2 25.2652 2 25V15C2 14.7348 2.10536 14.4804 2.29289 14.2929C2.48043 14.1054 2.73478 14 3 14H4V35C4.00197 36.6819 4.60941 38.3068 5.71118 39.5775C6.81295 40.8482 8.3354 41.6797 10 41.92V49C10 49.2652 10.1054 49.5196 10.2929 49.7071C10.4804 49.8946 10.7348 50 11 50C11.2652 50 11.5196 49.8946 11.7071 49.7071C11.8946 49.5196 12 49.2652 12 49V42H22V49C22 49.2652 22.1054 49.5196 22.2929 49.7071C22.4804 49.8946 22.7348 50 23 50C23.2652 50 23.5196 49.8946 23.7071 49.7071C23.8946 49.5196 24 49.2652 24 49V41.92C25.6646 41.6797 27.187 40.8482 28.2888 39.5775C29.3906 38.3068 29.998 36.6819 30 35V14H31C31.2652 14 31.5196 14.1054 31.7071 14.2929C31.8946 14.4804 32 14.7348 32 15V25C32 25.2652 32.1054 25.5196 32.2929 25.7071C32.4804 25.8946 32.7348 26 33 26C33.2652 26 33.5196 25.8946 33.7071 25.7071C33.8946 25.5196 34 25.2652 34 25V15C34 14.2044 33.6839 13.4413 33.1213 12.8787C32.5587 12.3161 31.7956 12 31 12H30C29.7859 9.25188 28.7038 6.64294 26.91 4.55L29.76 1.71C29.9483 1.5217 30.0541 1.2663 30.0541 1C30.0541 0.733701 29.9483 0.478306 29.76 0.290002C29.5717 0.101699 29.3163 -0.00408936 29.05 -0.00408936C28.7837 -0.00408936 28.5283 0.101699 28.34 0.290002L25.5 3.14C23.1507 1.11437 20.152 5.8651e-05 17.05 5.8651e-05C13.948 5.8651e-05 10.9493 1.11437 8.6 3.14L5.71 0.290002C5.61676 0.196764 5.50607 0.122803 5.38425 0.0723429C5.26243 0.0218825 5.13186 -0.00408936 5 -0.00408936C4.7337 -0.00408936 4.4783 0.101699 4.29 0.290002C4.1017 0.478306 3.99591 0.733701 3.99591 1C3.99591 1.2663 4.1017 1.5217 4.29 1.71L7.14 4.55C5.34622 6.64294 4.26412 9.25188 4.05 12H3C2.20435 12 1.44129 12.3161 0.878679 12.8787C0.31607 13.4413 0 14.2044 0 15V25C0 25.2652 0.105357 25.5196 0.292893 25.7071C0.48043 25.8946 0.734784 26 1 26ZM8.61 5.91C9.00852 5.43985 9.44681 5.00491 9.92 4.61C11.8945 2.92584 14.4048 2.00071 17 2.00071C19.5952 2.00071 22.1055 2.92584 24.08 4.61C24.5532 5.00491 24.9915 5.43985 25.39 5.91C26.8652 7.62351 27.7766 9.75 28 12H6C6.22342 9.75 7.13477 7.62351 8.61 5.91Z"
      fill="white"
      fill-opacity="0.64"
    />
  </svg>
