  <svg
    id="screen"
    viewBox="0 0 16 16"
    fill="none"
    xmlns="http://www.w3.org/2000/svg"
  >
    <g clip-path="url(#clip0_62_10200)">
      <path
        d="M0.729585 6.35846C1.12831 6.35846 1.45917 6.0276 1.45917 5.62887C1.45917 5.23014 1.12831 4.89928 0.729585 4.89928C0.330858 4.89928 0 5.23014 0 5.62887C0 6.0276 0.330858 6.35846 0.729585 6.35846ZM0.729585 3.98307C1.12831 3.98307 1.45917 3.65221 1.45917 3.25348C1.45917 2.85475 1.12831 2.52389 0.729585 2.52389C0.330858 2.52389 0 2.85475 0 3.25348C0 3.65221 0.330858 3.98307 0.729585 3.98307ZM0.729585 1.61616C1.12831 1.61616 1.45917 1.2853 1.45917 0.886568C1.45917 0.487841 1.12831 0.156982 0.729585 0.156982C0.330858 0.156982 0 0.487841 0 0.886568C0 1.2853 0.330858 1.61616 0.729585 1.61616ZM3.10498 1.61616C3.5037 1.61616 3.83456 1.2853 3.83456 0.886568C3.83456 0.487841 3.5037 0.156982 3.10498 0.156982C2.70625 0.156982 2.3754 0.487841 2.3754 0.886568C2.3754 1.2853 2.70625 1.61616 3.10498 1.61616ZM5.47189 1.61616C5.87061 1.61616 6.20147 1.2853 6.20147 0.886568C6.20147 0.487841 5.87061 0.156982 5.47189 0.156982C5.07316 0.156982 4.7423 0.487841 4.7423 0.886568C4.7423 1.2853 5.07316 1.61616 5.47189 1.61616ZM7.84728 1.61616C8.24601 1.61616 8.57687 1.2853 8.57687 0.886568C8.57687 0.487841 8.24601 0.156982 7.84728 0.156982C7.44856 0.156982 7.1177 0.487841 7.1177 0.886568C7.1177 1.2853 7.44856 1.61616 7.84728 1.61616ZM10.2142 1.61616C10.6129 1.61616 10.9438 1.2853 10.9438 0.886568C10.9438 0.487841 10.6129 0.156982 10.2142 0.156982C9.81544 0.156982 9.48464 0.487841 9.48464 0.886568C9.48464 1.2853 9.81544 1.61616 10.2142 1.61616ZM12.5896 1.61616C12.9883 1.61616 13.3191 1.2853 13.3191 0.886568C13.3191 0.487841 12.9883 0.156982 12.5896 0.156982C12.1909 0.156982 11.86 0.487841 11.86 0.886568C11.86 1.2853 12.1909 1.61616 12.5896 1.61616ZM14.9565 1.61616C15.3552 1.61616 15.686 1.2853 15.686 0.886568C15.686 0.487841 15.3552 0.156982 14.9565 0.156982C14.5578 0.156982 14.227 0.487841 14.227 0.886568C14.227 1.2853 14.5578 1.61616 14.9565 1.61616ZM14.9565 3.98307C15.3552 3.98307 15.686 3.65221 15.686 3.25348C15.686 2.85475 15.3552 2.52389 14.9565 2.52389C14.5578 2.52389 14.227 2.85475 14.227 3.25348C14.227 3.65221 14.5578 3.98307 14.9565 3.98307ZM14.9565 6.35846C15.3552 6.35846 15.686 6.0276 15.686 5.62887C15.686 5.23014 15.3552 4.89928 14.9565 4.89928C14.5578 4.89928 14.227 5.23014 14.227 5.62887C14.227 6.0276 14.5578 6.35846 14.9565 6.35846ZM14.9565 8.72537C15.3552 8.72537 15.686 8.39451 15.686 7.99578C15.686 7.59705 15.3552 7.26619 14.9565 7.26619C14.5578 7.26619 14.227 7.59705 14.227 7.99578C14.227 8.39451 14.5578 8.72537 14.9565 8.72537ZM14.9565 11.1008C15.3552 11.1008 15.686 10.7699 15.686 10.3712C15.686 9.97242 15.3552 9.64162 14.9565 9.64162C14.5578 9.64162 14.227 9.97242 14.227 10.3712C14.227 10.7699 14.5578 11.1008 14.9565 11.1008ZM14.9565 13.4677C15.3552 13.4677 15.686 13.1368 15.686 12.7381C15.686 12.3393 15.3552 12.0085 14.9565 12.0085C14.5578 12.0085 14.227 12.3393 14.227 12.7381C14.227 13.1368 14.5578 13.4677 14.9565 13.4677ZM14.9565 15.843C15.3552 15.843 15.686 15.5122 15.686 15.1135C15.686 14.7147 15.3552 14.3839 14.9565 14.3839C14.5578 14.3839 14.227 14.7147 14.227 15.1135C14.227 15.5122 14.5578 15.843 14.9565 15.843ZM12.5896 15.843C12.9883 15.843 13.3191 15.5122 13.3191 15.1135C13.3191 14.7147 12.9883 14.3839 12.5896 14.3839C12.1909 14.3839 11.86 14.7147 11.86 15.1135C11.86 15.5122 12.1909 15.843 12.5896 15.843ZM10.2142 15.843C10.6129 15.843 10.9438 15.5122 10.9438 15.1135C10.9438 14.7147 10.6129 14.3839 10.2142 14.3839C9.81544 14.3839 9.48464 14.7147 9.48464 15.1135C9.48464 15.5122 9.81544 15.843 10.2142 15.843Z"
        fill="white"
        fill-opacity="0.64"
      />
      <path
        d="M0.678684 15.8092H7.89819C8.3054 15.8092 8.56838 15.5461 8.56838 15.1389V9.30222L8.02544 9.83674C7.83031 10.0319 7.60126 10.1591 7.35524 10.227V14.35C7.35524 14.5366 7.29585 14.596 7.10921 14.596H1.45917C1.28102 14.596 1.21314 14.5366 1.21314 14.35V8.70841C1.21314 8.52178 1.28102 8.46239 1.45917 8.46239H5.51431C5.56521 8.19092 5.70095 7.92792 5.91303 7.71583L6.38812 7.24924H0.678684C0.271474 7.24924 0 7.51223 0 7.91944V15.1389C0 15.5461 0.271474 15.8092 0.678684 15.8092Z"
        fill="white"
        fill-opacity="0.64"
      />
      <path
        d="M6.60802 9.13254C6.81163 9.35311 7.134 9.33617 7.33761 9.13254L10.4002 6.12091L11.1552 6.89292C11.4182 7.1559 11.8254 7.0032 11.9102 6.62144L12.4956 3.88125C12.572 3.52494 12.2666 3.2365 11.9102 3.32134L9.17853 3.88974C8.7883 3.97457 8.64407 4.35633 8.91557 4.6278L9.67909 5.39981L6.60802 8.41147C6.4129 8.61508 6.42139 8.929 6.60802 9.13254Z"
        fill="white"
        fill-opacity="0.64"
      />
    </g>
    <defs>
      <clipPath id="clip0_62_10200">
        <rect fill="white" transform="translate(0 0.156982)" />
      </clipPath>
    </defs>
  </svg>
